<?xml version="1.0" encoding="UTF-8" standalone="no"?>
<!-- Created with Inkscape (http://www.inkscape.org/) -->

<svg
   xmlns:dc="http://purl.org/dc/elements/1.1/"
   xmlns:cc="http://creativecommons.org/ns#"
   xmlns:rdf="http://www.w3.org/1999/02/22-rdf-syntax-ns#"
   xmlns:svg="http://www.w3.org/2000/svg"
   xmlns="http://www.w3.org/2000/svg"
   xmlns:sodipodi="http://sodipodi.sourceforge.net/DTD/sodipodi-0.dtd"
   xmlns:inkscape="http://www.inkscape.org/namespaces/inkscape"
   width="50"
   height="50"
   viewBox="0 0 50.000001 50.000001"
   id="svg4218"
   version="1.1"
   inkscape:version="0.91 r13725"
   sodipodi:docname="motifCoucheAlpha3_50_50.svg"
   inkscape:export-filename="/Users/fguntz/Documents/Max 7/Packages/scratch4MAX_Video/media/motifCoucheAlpha3_50_50.png"
   inkscape:export-xdpi="90"
   inkscape:export-ydpi="90">
  <defs
     id="defs4220" />
  <sodipodi:namedview
     id="base"
     pagecolor="#ffffff"
     bordercolor="#666666"
     borderopacity="1.0"
     inkscape:pageopacity="0.0"
     inkscape:pageshadow="2"
     inkscape:zoom="6.37"
     inkscape:cx="20.478731"
     inkscape:cy="30.204082"
     inkscape:document-units="px"
     inkscape:current-layer="layer1"
     showgrid="false"
     units="px"
     inkscape:window-width="1440"
     inkscape:window-height="781"
     inkscape:window-x="0"
     inkscape:window-y="1"
     inkscape:window-maximized="1" />
  <metadata
     id="metadata4223">
    <rdf:RDF>
      <cc:Work
         rdf:about="">
        <dc:format>image/svg+xml</dc:format>
        <dc:type
           rdf:resource="http://purl.org/dc/dcmitype/StillImage" />
        <dc:title></dc:title>
      </cc:Work>
    </rdf:RDF>
  </metadata>
  <g
     inkscape:label="Calque 1"
     inkscape:groupmode="layer"
     id="layer1"
     transform="translate(0,-1002.3622)">
    <path
       style="opacity:1;fill:#ff00ff;fill-opacity:1;fill-rule:evenodd;stroke:none;stroke-width:3;stroke-linecap:round;stroke-linejoin:miter;stroke-miterlimit:4;stroke-dasharray:none;stroke-dashoffset:0;stroke-opacity:1"
       d="M 8.0399062,1002.3622 C 3.5857336,1002.3622 0,1005.9593 0,1010.4274 l 0,33.8696 c 0,4.4681 3.5857336,8.0652 8.0399062,8.0652 l 33.9201878,0 c 4.454172,0 8.039906,-3.5971 8.039906,-8.0652 l 0,-33.8696 c 0,-4.4681 -3.585734,-8.0652 -8.039906,-8.0652 l -33.9201878,0 z m 17.2750398,18.9266 a 9.2766608,6.3878613 0 0 1 9.276212,6.3893 9.2766608,6.3878613 0 0 1 -9.276212,6.3874 9.2766608,6.3878613 0 0 1 -9.27817,-6.3874 9.2766608,6.3878613 0 0 1 9.27817,-6.3893 z"
       id="rect4766"
       inkscape:connector-curvature="0" />
  </g>
</svg>
