<?xml version="1.0" encoding="UTF-8" standalone="no"?>
<!-- Created with Inkscape (http://www.inkscape.org/) -->

<svg
   xmlns:dc="http://purl.org/dc/elements/1.1/"
   xmlns:cc="http://creativecommons.org/ns#"
   xmlns:rdf="http://www.w3.org/1999/02/22-rdf-syntax-ns#"
   xmlns:svg="http://www.w3.org/2000/svg"
   xmlns="http://www.w3.org/2000/svg"
   xmlns:sodipodi="http://sodipodi.sourceforge.net/DTD/sodipodi-0.dtd"
   xmlns:inkscape="http://www.inkscape.org/namespaces/inkscape"
   width="200"
   height="100"
   viewBox="0 0 200 100"
   id="svg2"
   version="1.1"
   inkscape:version="0.91 r13725"
   sodipodi:docname="motifCoucheAlpha.svg"
   inkscape:export-filename="/Users/fguntz/Documents/Max 7/Packages/scratch4MAX_Video/media/motifCoucheAlpha.png"
   inkscape:export-xdpi="100"
   inkscape:export-ydpi="100"
   style="enable-background:new">
  <defs
     id="defs4" />
  <sodipodi:namedview
     id="base"
     pagecolor="#ffffff"
     bordercolor="#666666"
     borderopacity="1.0"
     inkscape:pageopacity="0.0"
     inkscape:pageshadow="2"
     inkscape:zoom="3.8076175"
     inkscape:cx="101.83686"
     inkscape:cy="43.221346"
     inkscape:document-units="px"
     inkscape:current-layer="layer1"
     showgrid="false"
     units="px"
     inkscape:window-width="1395"
     inkscape:window-height="777"
     inkscape:window-x="-1"
     inkscape:window-y="1"
     inkscape:window-maximized="0" />
  <metadata
     id="metadata7">
    <rdf:RDF>
      <cc:Work
         rdf:about="">
        <dc:format>image/svg+xml</dc:format>
        <dc:type
           rdf:resource="http://purl.org/dc/dcmitype/StillImage" />
        <dc:title />
      </cc:Work>
    </rdf:RDF>
  </metadata>
  <g
     inkscape:label="Calque 1"
     inkscape:groupmode="layer"
     id="layer1"
     transform="translate(0,-952.36216)">
    <path
       style="fill:#ffc752;fill-rule:evenodd;stroke:#000000;stroke-width:1px;stroke-linecap:butt;stroke-linejoin:miter;stroke-opacity:1;fill-opacity:1"
       d="M 141.10742 10.601562 C 140.65676 10.751784 140.34677 11.178185 139.92188 11.390625 C 139.56834 11.567395 139.08791 11.213865 138.73438 11.390625 C 138.61653 11.449555 138.844 11.714009 138.73438 11.787109 C 138.38771 12.018219 137.92148 11.995311 137.54883 12.181641 C 137.38217 12.264971 137.30933 12.472812 137.1543 12.576172 C 136.90917 12.739582 136.6084 12.809236 136.36328 12.972656 C 136.20824 13.076016 136.05205 13.200527 135.96875 13.367188 C 135.90985 13.485027 136.07837 13.690572 135.96875 13.763672 C 135.62209 13.994782 135.11651 13.908223 134.7832 14.158203 C 134.54751 14.334973 134.62241 14.772449 134.38672 14.949219 C 134.05341 15.199199 133.54783 15.11264 133.20117 15.34375 C 133.09155 15.41684 133.29437 15.645081 133.20117 15.738281 C 132.22128 16.718171 132.1603 16.301981 131.22461 16.925781 C 130.31656 17.531151 131.39555 17.151328 130.43555 18.111328 C 130.22723 18.319648 129.88966 18.342439 129.64453 18.505859 C 129.09641 18.871269 128.52832 19.225596 128.0625 19.691406 C 127.9693 19.784566 128.1214 19.970041 128.0625 20.087891 C 127.85006 20.512771 127.60934 20.937527 127.27344 21.273438 C 125.71767 22.829156 126.4703 21.288946 125.29688 22.853516 C 125.12009 23.089206 125.1087 23.436211 124.90039 23.644531 C 124.09544 24.449484 123.70528 24.786804 123.52734 24.898438 C 123.45668 25.009694 123.42448 25.06835 123.32031 25.224609 C 123.09264 25.566119 122.75734 25.660487 122.60742 25.996094 C 122.72992 25.96152 122.84929 25.93913 122.92578 26.015625 C 123.05753 26.147375 122.5293 26.596476 122.5293 26.410156 C 122.5293 26.235811 122.55921 26.104026 122.60742 25.996094 C 122.43153 26.045736 122.2446 26.12546 122.13477 26.015625 C 122.00302 25.883875 122.66106 25.752854 122.5293 25.621094 C 122.34298 25.434774 121.92461 25.807424 121.73828 25.621094 C 121.60653 25.489344 122.26652 25.356359 122.13477 25.224609 C 121.94844 25.038279 121.57944 25.342449 121.34375 25.224609 C 121.22591 25.165689 121.43695 24.923278 121.34375 24.830078 C 121.25059 24.736878 121.04242 24.923278 120.94922 24.830078 C 120.7409 24.621758 120.76105 24.247372 120.55273 24.039062 C 120.45957 23.945863 120.26783 24.112162 120.1582 24.039062 C 119.84814 23.832352 119.5739 23.558117 119.36719 23.248047 C 119.29409 23.138427 119.47681 22.926616 119.36719 22.853516 C 119.02053 22.622416 118.55429 22.645304 118.18164 22.458984 C 116.96732 21.851824 118.83487 22.236268 117.39062 21.273438 C 117.1714 21.127268 116.78789 21.459757 116.60156 21.273438 C 116.41523 21.087108 116.81236 20.640532 116.60156 20.482422 C 116.16698 20.156472 115.50541 20.330831 115.01953 20.087891 C 114.90169 20.028971 115.01953 19.823156 115.01953 19.691406 L 113.43945 18.505859 C 113.26645 18.436659 113.21973 18.959291 113.04297 18.900391 C 112.68944 18.782541 112.57346 18.303058 112.25391 18.111328 C 111.89665 17.896968 111.45325 17.869574 111.06641 17.714844 C 110.79288 17.605424 110.55683 17.413513 110.27734 17.320312 C 109.76199 17.148523 109.19462 17.139771 108.69531 16.925781 C 108.25868 16.738651 107.97559 16.227966 107.50977 16.134766 C 107.22089 16.076986 107.01335 16.529297 106.71875 16.529297 C 106.30211 16.529297 105.93991 16.225166 105.5332 16.134766 C 104.75086 15.960916 103.93269 15.958451 103.16211 15.738281 C 102.98295 15.687091 102.94834 15.38895 102.76758 15.34375 C 102.38412 15.24785 101.97533 15.34375 101.58008 15.34375 L 98.814453 15.34375 L 95.257812 15.34375 C 94.730803 15.34375 94.19562 15.25715 93.675781 15.34375 C 93.385183 15.39219 93.175365 15.689881 92.884766 15.738281 C 92.364928 15.824881 91.824527 15.824881 91.304688 15.738281 C 91.014088 15.689851 90.793161 15.25055 90.513672 15.34375 C 90.234183 15.43692 90.39863 16.041566 90.119141 16.134766 C 89.494185 16.343086 88.792377 16.026466 88.142578 16.134766 C 87.958788 16.165396 87.919093 16.460097 87.746094 16.529297 C 85.434819 17.453807 86.922629 16.536331 84.585938 16.925781 C 84.295338 16.974211 84.068458 17.210892 83.794922 17.320312 C 83.408084 17.475042 82.982026 17.528514 82.609375 17.714844 C 82.44272 17.798164 82.38589 18.042128 82.212891 18.111328 C 81.708516 18.313078 81.15514 18.356619 80.632812 18.505859 C 80.232205 18.620319 79.842523 18.768631 79.447266 18.900391 C 79.183762 19.032141 78.935739 19.203675 78.65625 19.296875 C 78.531259 19.338575 78.379561 19.237975 78.261719 19.296875 C 76.327204 20.264135 77.755704 19.774043 76.285156 20.876953 C 76.04947 21.053723 75.70246 21.065117 75.494141 21.273438 C 75.400981 21.366598 75.599543 21.588969 75.494141 21.667969 C 75.02277 22.021499 74.372208 22.090904 73.912109 22.458984 C 73.68206 22.643024 73.64933 22.984547 73.517578 23.248047 C 73.517578 23.379797 73.610738 23.551331 73.517578 23.644531 C 73.181674 23.980431 72.667935 24.099647 72.332031 24.435547 C 72.123712 24.643867 72.069252 24.961099 71.9375 25.224609 C 71.413386 26.272839 71.541016 26.068882 71.541016 27.201172 C 71.541016 27.204211 71.539158 27.207859 71.539062 27.210938 C 71.678299 27.334852 71.722765 27.518633 71.505859 27.421875 C 71.495598 27.489419 71.496259 27.552881 71.541016 27.597656 C 71.560062 27.61671 71.598891 27.623045 71.638672 27.628906 C 71.738947 27.614615 71.840598 27.597656 71.9375 27.597656 C 72.042317 27.597656 71.793474 27.651715 71.638672 27.628906 C 71.466269 27.653477 71.295499 27.672161 71.146484 27.597656 C 71.028641 27.538736 71.053324 27.294372 71.146484 27.201172 C 71.153654 27.194003 71.160724 27.195637 71.167969 27.189453 C 71.052023 27.093098 70.919217 26.973905 70.751953 26.806641 C 70.65879 26.713441 71.239644 26.899841 71.146484 26.806641 C 70.938165 26.598331 70.563788 26.618476 70.355469 26.410156 C 70.262309 26.316986 70.414389 26.133465 70.355469 26.015625 C 70.204503 25.713695 69.259142 25.097728 69.169922 24.830078 C 69.086592 24.580098 69.316089 24.258312 69.169922 24.039062 C 69.006504 23.793933 68.624034 23.807951 68.378906 23.644531 C 68.223873 23.541171 68.15103 23.331347 67.984375 23.248047 C 67.611723 23.061727 67.145491 23.084626 66.798828 22.853516 C 66.689203 22.780436 66.857748 22.576824 66.798828 22.458984 C 66.504221 21.869764 65.682612 21.739248 65.216797 21.273438 C 65.123637 21.180268 65.309957 20.970153 65.216797 20.876953 C 64.80016 20.460313 64.10809 20.441411 63.636719 20.087891 C 62.898906 19.534531 62.397969 18.664688 61.660156 18.111328 C 61.42447 17.934568 61.121765 17.866414 60.869141 17.714844 C 60.461798 17.470434 60.063626 17.210811 59.683594 16.925781 C 59.534534 16.813991 59.448838 16.625197 59.289062 16.529297 C 58.783815 16.226157 58.197287 16.065121 57.707031 15.738281 C 57.597406 15.665181 58.228507 15.779981 58.103516 15.738281 C 57.588164 15.566501 57.054164 15.45029 56.521484 15.34375 C 56.39229 15.31795 56.244796 15.40265 56.126953 15.34375 C 55.960298 15.26043 55.885502 15.052569 55.730469 14.949219 C 55.485341 14.785799 55.227217 14.624234 54.941406 14.552734 C 54.685769 14.488834 54.413895 14.552734 54.150391 14.552734 C 54.018638 14.552734 53.755859 14.420984 53.755859 14.552734 C 53.755859 14.739064 54.150391 14.762889 54.150391 14.949219 C 54.243551 15.042379 54.057231 15.25055 54.150391 15.34375 C 54.243554 15.43695 54.544922 15.212 54.544922 15.34375 C 54.544922 15.53008 54.150391 15.551961 54.150391 15.738281 C 54.150391 15.870031 54.451762 15.645081 54.544922 15.738281 C 54.638082 15.831441 54.544922 16.003016 54.544922 16.134766 L 54.544922 16.529297 L 54.544922 21.273438 L 54.544922 29.177734 C 54.778818 29.119259 54.990445 29.200164 55.195312 29.322266 L 56.574219 29.628906 C 56.722746 29.596407 56.937916 29.572266 57.3125 29.572266 C 57.392658 29.572266 57.342477 29.684409 57.310547 29.792969 L 58.103516 29.96875 L 57.707031 29.96875 C 57.575279 29.96875 57.40566 30.06195 57.3125 29.96875 C 57.276019 29.932269 57.289995 29.862843 57.310547 29.792969 L 56.574219 29.628906 C 55.964809 29.762252 56.917969 30.121346 56.917969 30.363281 C 56.917969 30.495031 56.639327 30.422181 56.521484 30.363281 C 56.04999 30.127533 55.643256 29.589237 55.195312 29.322266 L 54.544922 29.177734 C 54.017912 29.309484 54.941406 30.216536 54.941406 30.759766 C 54.941406 30.946096 54.731247 31.154297 54.544922 31.154297 C 54.358596 31.154297 54.327155 30.700866 54.150391 30.759766 C 53.796862 30.877616 53.692685 31.382168 53.359375 31.548828 C 53.241532 31.607748 53.491127 31.154297 53.359375 31.154297 C 52.405038 31.154297 52.775613 31.644423 52.173828 31.945312 C 51.801176 32.131642 51.18733 31.469034 50.988281 32.339844 C 50.69016 32.563434 50.550795 33.013009 50.197266 33.130859 C 50.020502 33.189779 49.989059 32.734375 49.802734 32.734375 C 49.616408 32.734375 49.538002 32.999099 49.40625 33.130859 C 49.142745 33.394359 48.927251 33.715165 48.617188 33.921875 C 48.288313 34.141125 47.694131 33.483375 47.431641 33.921875 C 47.051609 34.206895 47.020657 34.822402 46.640625 35.107422 C 45.850111 35.700312 46.047964 34.810982 45.455078 35.107422 C 45.03019 35.319862 44.676874 35.652084 44.269531 35.896484 C 44.016907 36.048064 43.723644 36.129549 43.478516 36.292969 C 43.323483 36.396329 43.237063 36.58414 43.082031 36.6875 C 42.836903 36.85092 42.523019 36.897991 42.292969 37.082031 C 41.856481 37.431221 41.543911 37.920331 41.107422 38.269531 C 40.877373 38.453561 40.569029 38.512493 40.316406 38.664062 C 39.909062 38.908473 39.555747 39.242638 39.130859 39.455078 C 39.013016 39.513978 38.839777 39.376078 38.734375 39.455078 C 38.287193 39.790468 37.898019 40.204135 37.548828 40.640625 C 37.364789 40.870675 37.389983 41.254881 37.154297 41.431641 C 36.820987 41.681651 36.315414 41.595112 35.96875 41.826172 C 35.859126 41.899272 36.02767 42.102903 35.96875 42.220703 C 35.756306 42.645603 35.441238 43.01095 35.177734 43.40625 C 34.914229 43.53795 34.563483 43.567034 34.386719 43.802734 C 34.136736 44.136034 34.24217 44.654981 33.992188 44.988281 C 33.578332 45.540081 33.066596 45.129397 32.806641 45.779297 C 32.604891 46.283697 32.689645 46.893575 32.410156 47.359375 C 32.258582 47.612075 31.829413 47.547559 31.621094 47.755859 C 31.204457 48.172459 31.246715 48.919337 30.830078 49.335938 C 30.736915 49.428936 30.477207 49.210938 30.435547 49.335938 C 30.310555 49.710938 30.531407 50.137984 30.435547 50.521484 C 30.345165 50.882984 29.811186 50.9792 29.644531 51.3125 C 29.585611 51.4304 29.676481 51.579231 29.644531 51.707031 C 29.543481 52.111231 29.434373 52.519978 29.248047 52.892578 C 29.164719 53.059278 28.912436 53.112263 28.853516 53.289062 C 28.771216 53.535962 28.853516 56.238672 28.853516 56.451172 L 28.853516 61.984375 L 28.853516 65.541016 L 28.853516 67.123047 C 28.853516 67.254747 28.821566 67.389778 28.853516 67.517578 C 28.954565 67.921778 29.146997 68.298925 29.248047 68.703125 C 29.445675 69.493625 28.85279 68.702872 29.248047 69.888672 C 29.306968 70.065472 29.561201 70.118556 29.644531 70.285156 C 29.703451 70.403056 29.585611 70.561886 29.644531 70.679688 C 29.727858 70.846385 29.935708 70.919119 30.039062 71.074219 C 30.202481 71.319319 30.227228 71.656934 30.435547 71.865234 C 30.52871 71.958234 30.736918 71.772234 30.830078 71.865234 C 32.84999 73.885134 29.172551 71.314966 32.015625 73.447266 C 32.486997 73.800766 33.1074 73.909528 33.597656 74.236328 C 33.752688 74.339728 33.837153 74.529413 33.992188 74.632812 C 34.237316 74.796212 34.538075 74.863944 34.783203 75.027344 C 35.331325 75.392744 35.78742 75.892991 36.363281 76.212891 C 36.983503 76.557491 37.681082 76.740406 38.339844 77.003906 C 38.471596 77.003906 38.612046 76.954906 38.734375 77.003906 C 39.281447 77.222706 39.816753 77.482622 40.316406 77.794922 C 41.498893 78.534022 41.591407 78.9639 42.6875 79.375 C 43.467719 79.6675 44.260461 79.926516 45.058594 80.166016 C 45.578912 80.322116 46.198582 80.244847 46.640625 80.560547 C 47.176682 80.943447 47.254207 81.815678 47.826172 82.142578 C 48.283744 82.403978 48.89179 82.028178 49.40625 82.142578 C 52.801843 82.897078 50.137273 82.680756 52.568359 83.722656 C 53.566971 84.150656 54.699765 84.170072 55.730469 84.513672 C 56.403568 84.738072 57.011301 85.165587 57.707031 85.304688 C 58.353 85.433886 59.024833 85.304688 59.683594 85.304688 L 61.660156 85.304688 L 68.775391 85.304688 L 73.517578 85.304688 C 74.308091 85.304688 75.100889 85.370686 75.888672 85.304688 C 76.687322 85.238186 77.460301 84.908203 78.261719 84.908203 C 79.193348 84.908203 80.097778 85.366685 81.027344 85.304688 C 82.111395 85.232387 83.105757 84.590672 84.189453 84.513672 C 84.988835 84.456572 85.759129 84.908203 86.560547 84.908203 C 90.712267 84.908203 87.163601 84.071556 91.699219 83.722656 C 92.498276 83.661156 93.271666 84.186141 94.070312 84.119141 C 94.900711 84.049941 95.623525 83.477225 96.443359 83.328125 C 97.091494 83.210325 97.76443 83.394125 98.419922 83.328125 C 99.088396 83.261325 99.726831 83.007594 100.39453 82.933594 C 100.91831 82.875594 101.4766 83.100194 101.97656 82.933594 C 102.70538 82.690594 103.21731 81.966794 103.95312 81.746094 C 104.58411 81.556794 105.28372 81.875294 105.92969 81.746094 C 106.62542 81.606994 107.23751 81.199531 107.9043 80.957031 C 108.6874 80.672231 109.48091 80.411016 110.27734 80.166016 C 111.1941 79.883916 112.14155 79.7027 113.04297 79.375 C 114.65263 78.7896 115.94224 77.437437 117.78711 77.398438 C 119.92931 76.642336 122.40974 75.944444 124.50586 75.027344 C 125.58548 74.555044 126.56458 73.861066 127.66797 73.447266 C 128.68526 73.065766 129.79308 72.98035 130.83008 72.65625 C 138.3879 70.29445 129.80619 72.785972 136.75977 69.888672 C 137.3799 69.630272 138.10301 69.723741 138.73438 69.494141 C 140.85434 68.723241 141.78308 67.676564 143.87305 66.726562 C 144.81428 66.298763 145.74021 66.452 146.64062 65.9375 C 147.21259 65.6107 147.69369 65.1453 148.2207 64.75 C 148.48421 64.75 148.76706 64.848 149.01172 64.75 C 151.04778 63.9356 149.40788 63.960291 151.38281 62.775391 C 151.60876 62.639791 151.98751 62.961691 152.17383 62.775391 C 152.59047 62.358691 152.59676 61.653459 152.96484 61.193359 C 153.14888 60.963359 153.54754 61.007128 153.75586 60.798828 C 154.09176 60.462928 154.24817 59.984281 154.54492 59.613281 C 154.77772 59.322281 155.11235 59.120366 155.33594 58.822266 C 155.5127 58.586566 155.54643 58.26125 155.73047 58.03125 C 156.07966 57.59475 156.58258 57.292903 156.91797 56.845703 C 156.99697 56.740303 156.91797 56.582872 156.91797 56.451172 L 156.91797 55.265625 L 156.91797 52.892578 L 156.91797 50.521484 C 156.91797 50.126184 156.99547 49.723537 156.91797 49.335938 C 156.77882 48.640237 155.98967 48.163575 156.12695 47.359375 C 156.06195 46.969575 156.12695 46.569028 156.12695 46.173828 C 156.12695 45.146928 156.17538 45.481634 155.33594 43.802734 C 155.16928 43.469434 154.71158 43.345019 154.54492 43.011719 C 153.57082 41.063519 154.86972 42.528545 153.35938 40.640625 C 153.12659 40.349625 152.73501 40.182919 152.56836 39.849609 C 152.45052 39.613929 152.73297 39.264354 152.56836 39.058594 C 152.15683 38.544184 151.42208 38.368817 150.98828 37.873047 C 150.48239 37.294887 150.17582 36.568054 149.80273 35.896484 C 149.51658 35.381424 149.39972 34.759826 149.01172 34.316406 C 148.45619 33.681506 147.67006 33.289905 147.03516 32.734375 C 146.61449 32.366285 146.24487 31.944078 145.84961 31.548828 C 145.45436 31.153568 145.02191 30.792691 144.66406 30.363281 C 144.35995 29.998341 144.20895 29.513634 143.87305 29.177734 C 143.53714 28.841824 143.0234 28.722629 142.6875 28.386719 C 142.35159 28.050819 142.27651 27.486202 141.89648 27.201172 C 141.68568 27.043072 141.34311 27.319012 141.10742 27.201172 C 140.48589 26.890408 140.15045 26.691403 139.97461 26.558594 C 139.73465 26.520207 139.5199 26.487964 139.13086 26.410156 C 138.84198 26.352376 138.58497 26.179045 138.33984 26.015625 C 138.18481 25.912275 138.13164 25.621094 137.94531 25.621094 C 137.65071 25.621094 137.44891 26.015625 137.1543 26.015625 C 136.85969 26.015625 136.64277 25.714294 136.36328 25.621094 C 136.23829 25.579394 136.1005 25.621094 135.96875 25.621094 C 135.57349 25.621094 135.16665 25.716994 134.7832 25.621094 C 134.60244 25.575904 134.57305 25.224609 134.38672 25.224609 C 134.29352 25.317809 134.51847 25.621094 134.38672 25.621094 C 134.25497 25.621094 134.25497 25.224609 134.38672 25.224609 C 134.59504 25.016289 134.88312 24.830078 135.17773 24.830078 C 135.17773 24.643748 135.44052 24.567307 135.57227 24.435547 C 135.83193 24.175897 137.1078 22.992936 137.1543 22.853516 C 137.21322 22.676756 136.75977 22.645304 136.75977 22.458984 C 136.75977 22.327234 137.0611 22.552184 137.1543 22.458984 C 137.82097 21.792314 137.27865 21.543623 137.94531 20.876953 C 138.03848 20.783753 138.24664 20.970153 138.33984 20.876953 C 138.54816 20.668633 138.60262 20.351391 138.73438 20.087891 L 139.52539 18.505859 C 139.65714 18.242349 139.7451 17.950524 139.92188 17.714844 C 141.78356 15.232584 139.56743 18.962481 141.50195 15.738281 C 141.80509 15.233031 141.93944 14.629573 142.29297 14.158203 C 142.51656 13.860083 142.81853 13.630688 143.08203 13.367188 C 144.15204 12.297186 143.87305 12.949055 143.87305 11.390625 C 143.87305 11.258875 143.77985 11.089294 143.87305 10.996094 L 141.50195 10.996094 C 141.37019 10.996094 141.20062 11.089294 141.10742 10.996094 C 141.01422 10.902924 141.23241 10.559863 141.10742 10.601562 z M 143.87305 10.996094 L 144.26953 10.996094 C 144.40129 10.996094 143.96621 10.902894 143.87305 10.996094 z M 139.97461 26.558594 C 142.05442 26.891301 139.16003 25.94337 139.97461 26.558594 z M 54.150391 14.949219 C 53.096372 13.895199 54.150391 16.003239 54.150391 14.949219 z M 71.167969 27.189453 C 71.31903 27.314991 71.428612 27.387416 71.505859 27.421875 C 71.516464 27.352068 71.537005 27.277206 71.539062 27.210938 C 71.440736 27.12343 71.302197 27.074889 71.167969 27.189453 z M 123.52734 24.898438 C 124.38916 23.541505 123.00437 25.226526 123.52734 24.898438 z M 135.55078 24.808594 C 135.46574 24.824007 135.2634 24.891493 135.20703 24.847656 C 135.18742 24.923311 134.62016 25.224609 134.7832 25.224609 C 135.07781 25.224609 135.36395 25.038398 135.57227 24.830078 C 135.59556 24.806778 135.58347 24.80267 135.55078 24.808594 z M 115.75977 32.691406 C 115.92322 32.696316 116.07414 32.708188 116.20508 32.734375 C 116.49396 32.792155 116.7166 33.037659 116.99609 33.130859 C 117.24607 33.214159 117.55142 33.013009 117.78711 33.130859 C 117.95376 33.214179 117.99532 33.525391 118.18164 33.525391 C 118.36797 33.525391 118.40951 33.047559 118.57617 33.130859 C 118.83967 33.262609 118.76434 33.713555 118.97266 33.921875 C 119.06586 34.015035 118.85481 33.466491 118.97266 33.525391 C 119.30597 33.692051 119.50017 34.052896 119.76367 34.316406 C 119.63192 34.316406 119.36719 34.184646 119.36719 34.316406 C 119.36719 34.619086 120.54973 35.104422 120.55273 35.107422 C 120.6459 35.200622 120.0993 34.989582 120.1582 35.107422 C 120.32485 35.440732 120.74251 35.586424 120.94922 35.896484 C 121.02232 36.006114 120.89032 36.175129 120.94922 36.292969 C 121.5519 37.498339 121.26112 35.569846 121.73828 37.478516 C 121.80218 37.734156 121.73828 38.006021 121.73828 38.269531 L 121.73828 40.640625 L 121.73828 43.011719 C 121.73828 43.143519 121.79718 43.28835 121.73828 43.40625 C 121.65496 43.57285 121.42705 43.636134 121.34375 43.802734 C 121.28485 43.920634 121.34375 44.065466 121.34375 44.197266 C 121.34375 44.460766 121.42705 44.738281 121.34375 44.988281 C 121.22648 45.340081 120.27547 45.822028 120.1582 46.173828 C 120.09928 46.350528 120.65609 46.413359 120.55273 46.568359 C 120.18732 47.116559 119.33807 47.207759 118.97266 47.755859 C 118.88471 47.887759 118.21934 49.307937 118.18164 49.335938 C 117.84833 49.585938 117.3294 49.480469 116.99609 49.730469 C 116.76041 49.907269 116.80988 50.313184 116.60156 50.521484 C 116.39325 50.729784 116.04624 50.741169 115.81055 50.917969 C 115.51243 51.141469 115.36553 51.568631 115.01953 51.707031 C 114.69519 51.836731 113.54029 51.707031 113.04297 51.707031 L 110.67188 51.707031 C 110.14486 51.707031 109.60858 51.810331 109.0918 51.707031 C 108.68326 51.625331 108.31527 51.3805 107.9043 51.3125 C 107.51442 51.2475 107.11401 51.3125 106.71875 51.3125 C 106.71875 51.1808 106.84657 50.949969 106.71875 50.917969 C 104.14496 50.274469 106.09435 51.592084 103.95312 50.521484 C 103.61983 50.354784 103.47217 49.937169 103.16211 49.730469 C 102.91698 49.567069 102.61621 49.499337 102.37109 49.335938 C 102.21605 49.232638 102.10831 49.073106 101.97656 48.941406 C 101.84481 48.809606 101.68344 48.699922 101.58008 48.544922 C 101.41666 48.299822 101.34897 48.000959 101.18555 47.755859 C 101.0822 47.600859 100.87432 47.526075 100.79102 47.359375 C 100.73212 47.241575 100.79102 47.096544 100.79102 46.964844 L 100.79102 46.568359 L 100.79102 43.40625 L 100.79102 42.617188 C 100.79102 42.485388 100.73212 42.338503 100.79102 42.220703 C 100.87435 42.054003 101.12665 42.002972 101.18555 41.826172 C 101.35221 41.326252 101.0189 40.744101 101.18555 40.244141 C 101.24448 40.067381 101.44833 39.981359 101.58008 39.849609 C 101.84359 39.586109 102.20443 39.391904 102.37109 39.058594 C 102.48893 38.822904 102.25324 38.505211 102.37109 38.269531 C 102.53774 37.936221 103.07171 37.840046 103.16211 37.478516 C 103.23356 37.192706 102.67438 36.96699 102.76758 36.6875 C 102.86075 36.40801 103.34832 36.501289 103.55664 36.292969 C 103.89254 35.957069 104.01176 35.443322 104.34766 35.107422 C 104.44082 35.014222 104.70049 35.232412 104.74219 35.107422 C 104.86718 34.732452 104.56542 34.275405 104.74219 33.921875 C 104.87394 33.658365 105.32488 33.733711 105.5332 33.525391 C 105.6264 33.432231 105.41536 33.189759 105.5332 33.130859 C 105.76889 33.013009 106.06072 33.130859 106.32422 33.130859 C 106.32422 32.999099 106.71875 32.999099 106.71875 33.130859 L 108.69531 33.130859 C 109.22232 32.999099 109.74466 32.840905 110.27734 32.734375 C 110.40654 32.708575 110.54012 32.734375 110.67188 32.734375 L 111.85742 32.734375 L 114.22852 32.734375 C 114.67371 32.734375 115.2694 32.676676 115.75977 32.691406 z M 106.71875 33.130859 C 106.66595 33.130859 106.59117 33.153042 106.52148 33.169922 C 106.62568 33.195161 106.71875 33.209809 106.71875 33.130859 z M 106.52148 33.169922 C 106.4518 33.153042 106.37702 33.130859 106.32422 33.130859 C 106.32422 33.209809 106.41729 33.195161 106.52148 33.169922 z M 67.939453 38.056641 C 68.033211 38.043492 68.1547 38.095703 68.253906 38.095703 C 68.253906 38.029603 68.519263 38.095703 68.453125 38.095703 L 68.650391 38.095703 C 68.650391 38.029603 68.915747 38.095703 68.849609 38.095703 L 69.642578 38.095703 L 71.03125 38.095703 C 71.229663 38.095703 71.438722 38.033003 71.626953 38.095703 C 71.715686 38.125283 71.742512 38.251169 71.826172 38.292969 C 71.885327 38.322569 71.957297 38.292969 72.023438 38.292969 C 72.089574 38.292969 72.159916 38.313869 72.222656 38.292969 C 72.362955 38.246199 72.471253 38.095703 72.619141 38.095703 C 72.712673 38.095703 72.378092 38.209269 72.419922 38.292969 C 72.486059 38.425279 72.674887 38.456288 72.818359 38.492188 C 72.882206 38.508158 72.949327 38.496141 73.015625 38.492188 C 73.120198 38.387577 73.264221 38.292969 73.412109 38.292969 C 74.368812 38.292969 73.403641 38.540356 74.007812 38.691406 C 74.2003 38.739506 74.415285 38.628706 74.603516 38.691406 C 74.666256 38.712316 74.537376 38.888672 74.603516 38.888672 C 74.751404 38.888672 74.859701 38.644606 75 38.691406 C 75.140303 38.738166 75.076168 39.005891 75.199219 39.087891 C 75.309278 39.161291 75.470216 39.046091 75.595703 39.087891 C 75.684436 39.117471 75.709309 39.243356 75.792969 39.285156 C 75.852124 39.314756 75.933025 39.255556 75.992188 39.285156 C 76.075845 39.326986 76.102676 39.454775 76.191406 39.484375 C 76.316893 39.526175 76.455615 39.484375 76.587891 39.484375 C 76.654028 39.550505 76.701496 39.639841 76.785156 39.681641 C 76.844312 39.711241 76.937605 39.634841 76.984375 39.681641 C 77.088948 39.786211 77.077068 39.975498 77.181641 40.080078 C 77.228407 40.126878 77.318119 40.059178 77.380859 40.080078 C 77.521158 40.126838 77.672771 40.172774 77.777344 40.277344 C 77.82411 40.324144 77.550498 40.218144 77.580078 40.277344 C 77.657143 40.431467 77.848737 40.502515 77.945312 40.642578 C 78.04374 40.618058 78.136584 40.599345 78.173828 40.673828 C 78.239966 40.806108 77.910422 40.939986 77.976562 41.072266 C 78.035719 41.190576 78.279517 40.978766 78.373047 41.072266 C 78.439184 41.138406 78.131998 41.185831 78.173828 41.269531 C 78.239966 41.401841 78.467693 41.36418 78.572266 41.46875 C 78.619032 41.51555 78.326277 41.42195 78.373047 41.46875 C 78.47762 41.57337 78.703391 41.533736 78.769531 41.666016 C 78.81136 41.749666 78.530436 41.781534 78.572266 41.865234 C 78.638403 41.997544 78.90261 41.932183 78.96875 42.064453 C 79.145117 42.417183 78.263283 42.108196 78.96875 42.460938 C 79.027905 42.490537 79.145096 42.398238 79.166016 42.460938 C 79.228756 42.649166 79.117896 42.862197 79.166016 43.054688 C 79.188701 43.145426 79.323404 43.170206 79.365234 43.253906 C 79.394814 43.313056 79.365234 43.387025 79.365234 43.453125 L 79.365234 43.650391 L 79.365234 45.435547 L 79.365234 46.826172 C 79.365234 47.053682 79.416614 47.413601 79.365234 47.619141 C 79.329366 47.762631 79.166016 47.867725 79.166016 48.015625 C 79.166016 48.081625 79.386154 47.952625 79.365234 48.015625 C 79.289826 48.241925 79.075394 48.398028 78.96875 48.611328 C 78.93917 48.670428 78.93917 48.749594 78.96875 48.808594 C 79.010579 48.892194 79.232156 48.941812 79.166016 49.007812 C 79.072483 49.101813 78.811361 48.882313 78.769531 49.007812 C 78.703394 49.206212 78.96875 49.394416 78.96875 49.603516 C 78.96875 49.697116 78.853191 49.758781 78.769531 49.800781 C 78.710376 49.830781 78.572266 49.734781 78.572266 49.800781 C 78.572266 49.948681 78.835671 50.066919 78.769531 50.199219 C 78.710376 50.317519 78.466577 50.105219 78.373047 50.199219 C 78.306909 50.265319 78.614096 50.312484 78.572266 50.396484 C 78.506128 50.528884 78.278401 50.491103 78.173828 50.595703 C 78.127062 50.642703 78.402627 50.536703 78.373047 50.595703 C 78.289389 50.763003 78.060222 50.824886 77.976562 50.992188 C 77.946985 51.051187 78.232978 50.962187 78.173828 50.992188 C 77.986763 51.085788 77.754098 51.075406 77.580078 51.191406 C 77.525048 51.228106 77.609658 51.329672 77.580078 51.388672 C 77.538249 51.472372 77.446999 51.521891 77.380859 51.587891 C 77.314722 51.653991 77.275171 51.785156 77.181641 51.785156 C 77.088108 51.785156 77.050515 51.521891 76.984375 51.587891 C 76.836492 51.735691 76.901169 52.007641 76.785156 52.181641 C 76.74847 52.236641 76.634661 52.134641 76.587891 52.181641 C 76.541121 52.228441 76.647051 52.350859 76.587891 52.380859 C 76.46958 52.439859 76.301466 52.307859 76.191406 52.380859 C 76.068353 52.462859 76.115239 52.695344 75.992188 52.777344 C 75.882129 52.850344 75.72119 52.735344 75.595703 52.777344 C 75.4191 52.836244 75.176603 53.314047 75 53.373047 C 74.874513 53.415047 74.713575 53.300047 74.603516 53.373047 C 74.480463 53.455047 74.527347 53.687531 74.404297 53.769531 C 74.294237 53.842531 74.133302 53.727531 74.007812 53.769531 C 73.919079 53.799131 73.892254 53.92675 73.808594 53.96875 C 73.749439 53.99875 73.677468 53.96875 73.611328 53.96875 L 73.015625 53.96875 L 72.023438 53.96875 L 70.039062 53.96875 L 69.642578 53.96875 C 69.444165 53.96875 69.235106 54.03175 69.046875 53.96875 C 68.984135 53.94785 69.101905 53.806531 69.046875 53.769531 C 68.872856 53.653131 68.651538 53.638266 68.453125 53.572266 C 68.453125 53.638366 68.519265 53.769531 68.453125 53.769531 C 66.870293 53.769531 68.091735 53.688447 67.460938 53.373047 C 67.401781 53.343047 67.324459 53.394047 67.261719 53.373047 C 67.12142 53.326247 67.008707 53.209828 66.865234 53.173828 C 66.702312 53.132828 66.120366 53.221828 66.072266 53.173828 C 65.924373 53.025928 66.047066 52.696078 65.873047 52.580078 C 65.238126 52.156778 65.714999 53.532478 65.080078 52.580078 C 65.006708 52.470078 65.198389 52.240641 65.080078 52.181641 C 64.947803 52.115541 64.829529 52.380859 64.681641 52.380859 C 63.62344 52.380859 64.881541 52.049656 64.087891 51.785156 C 63.947592 51.738356 63.795979 52.088975 63.691406 51.984375 C 63.551107 51.844075 63.856496 51.498772 63.691406 51.388672 C 63.517387 51.272672 63.304848 51.587891 63.095703 51.587891 C 63.00217 51.587891 62.962624 51.454672 62.896484 51.388672 C 62.830347 51.322572 62.751099 51.269406 62.699219 51.191406 C 62.617185 51.068406 62.632275 50.858969 62.5 50.792969 C 62.416342 50.751169 62.366921 51.058188 62.300781 50.992188 C 62.207251 50.898688 62.359941 50.714003 62.300781 50.595703 C 62.271204 50.536703 62.166256 50.616703 62.103516 50.595703 C 61.963217 50.548903 61.773171 50.528784 61.707031 50.396484 C 61.665202 50.312784 61.946127 50.283219 61.904297 50.199219 C 61.838159 50.066819 61.612384 50.1045 61.507812 50 C 61.461043 49.9532 61.537393 49.859781 61.507812 49.800781 C 61.465982 49.717181 61.350424 49.687516 61.308594 49.603516 C 61.282504 49.551416 61.308594 48.912294 61.308594 48.808594 L 61.308594 47.222656 C 61.308594 47.024246 61.245854 46.815183 61.308594 46.626953 C 61.338171 46.538223 61.478232 46.516434 61.507812 46.427734 C 61.738188 45.736604 61.308594 46.313596 61.308594 45.634766 C 61.308594 45.588626 61.685221 44.928997 61.707031 44.841797 C 61.937407 43.920297 61.507812 44.983275 61.507812 44.046875 C 61.507812 43.953345 61.665201 43.933309 61.707031 43.849609 C 61.800564 43.662539 61.853577 43.456806 61.904297 43.253906 C 61.961327 43.025796 61.80243 42.664667 61.904297 42.460938 C 61.987955 42.293616 62.197016 42.220103 62.300781 42.064453 C 62.374151 41.954393 62.241631 41.784326 62.300781 41.666016 C 62.499194 41.269186 62.698072 41.667506 62.896484 41.072266 C 62.926062 40.983536 62.669639 40.961747 62.699219 40.873047 C 62.764281 40.677857 63.525516 40.129699 63.691406 39.880859 C 63.77344 39.757809 63.806642 39.607425 63.888672 39.484375 C 63.940554 39.406545 64.046061 39.368856 64.087891 39.285156 C 64.117471 39.226006 64.041121 39.134691 64.087891 39.087891 C 64.134657 39.041091 64.219016 39.087891 64.285156 39.087891 L 64.880859 39.087891 L 66.666016 39.087891 C 66.875161 38.878751 67.214838 38.855466 67.460938 38.691406 C 67.515967 38.654716 66.725063 38.789257 67.460938 38.492188 C 67.71875 38.363276 67.79657 38.809209 68.054688 38.292969 C 68.096514 38.209309 67.791282 38.161803 67.857422 38.095703 C 67.880805 38.072328 67.9082 38.061023 67.939453 38.056641 z M 66.666016 39.087891 C 66.864428 39.021751 67.327859 39.087082 67.261719 38.888672 C 67.195581 38.690262 66.518128 39.235781 66.666016 39.087891 z M 77.945312 40.642578 C 77.887395 40.657006 77.826344 40.673828 77.777344 40.673828 C 77.711204 40.673828 78.006141 40.733028 77.976562 40.673828 C 77.969971 40.660641 77.953575 40.654562 77.945312 40.642578 z M 73.015625 38.492188 C 72.968855 38.538987 73.280981 38.492188 73.214844 38.492188 C 73.14838 38.492188 73.08258 38.488194 73.015625 38.492188 z M 68.849609 38.095703 L 68.650391 38.095703 C 68.650391 38.161803 68.783469 38.095703 68.849609 38.095703 z M 68.453125 38.095703 L 68.253906 38.095703 C 68.253906 38.161803 68.386985 38.095703 68.453125 38.095703 z M 109.48633 59.613281 C 109.48633 59.481581 109.54523 59.889913 109.48633 60.007812 L 109.48633 60.402344 C 109.48633 60.665844 109.42243 60.937759 109.48633 61.193359 C 109.55773 61.479159 109.83243 61.693775 109.88086 61.984375 C 109.96746 62.504175 109.88086 63.037453 109.88086 63.564453 C 109.88086 63.696153 109.84886 63.833137 109.88086 63.960938 C 111.24565 68.055337 109.47614 62.326031 110.27734 66.332031 C 110.33514 66.620931 110.60042 66.837247 110.67188 67.123047 C 110.73578 67.378647 110.67187 67.648609 110.67188 67.912109 L 110.67188 70.679688 L 110.67188 71.470703 C 110.67188 71.477544 110.67708 71.488598 110.67773 71.496094 C 110.8414 71.109597 111.17571 70.750188 110.67188 72.261719 C 110.40969 73.048319 110.30247 72.44545 109.88086 72.65625 C 109.71421 72.73925 109.67265 73.050781 109.48633 73.050781 C 109.35457 73.050781 109.57953 72.56305 109.48633 72.65625 C 109.27801 72.86455 109.30012 73.238966 109.0918 73.447266 C 109.0052 73.534266 108.04023 73.356266 107.9043 73.447266 C 107.59423 73.653966 107.44854 74.069728 107.11523 74.236328 C 106.64386 74.472028 106.00457 74.000628 105.5332 74.236328 C 105.19989 74.403028 105.10372 74.936944 104.74219 75.027344 C 104.45638 75.099344 104.24372 74.584312 103.95312 74.632812 C 102.81746 75.200645 102.41533 75.426198 102.1582 75.574219 C 101.87726 75.75775 101.80905 75.775221 102.1582 75.574219 C 102.62562 75.268866 103.1776 74.742757 101.18555 75.027344 C 100.60226 75.110344 100.18877 75.735059 99.605469 75.818359 C 99.193019 75.877359 98.832372 75.364928 98.419922 75.423828 C 97.83663 75.506828 97.424181 76.154291 96.837891 76.212891 C 96.310121 76.265891 94.166809 75.565359 93.28125 75.818359 C 92.714707 75.980259 92.283883 76.536275 91.699219 76.609375 C 90.48277 76.305175 89.811663 76.000491 88.537109 76.212891 C 88.246511 76.260891 88.03498 76.551575 87.746094 76.609375 C 87.358512 76.686375 86.955804 76.609375 86.560547 76.609375 L 84.585938 76.609375 L 79.050781 76.609375 L 76.679688 76.609375 L 75.888672 76.609375 C 75.625167 76.609375 75.355246 76.673375 75.099609 76.609375 C 74.813798 76.537375 74.594405 76.284391 74.308594 76.212891 C 74.052957 76.148891 73.773215 76.276891 73.517578 76.212891 C 73.231767 76.141891 73.012373 75.889859 72.726562 75.818359 C 72.470926 75.754359 72.156749 75.964559 71.9375 75.818359 C 71.692372 75.654959 71.820505 75.120544 71.541016 75.027344 C 71.261527 74.934344 71.031442 75.516928 70.751953 75.423828 C 70.743453 75.423828 70.267204 74.236328 69.960938 74.236328 C 69.774612 74.236328 69.731108 74.716113 69.564453 74.632812 C 69.300949 74.501012 69.433427 73.973497 69.169922 73.841797 C 69.003268 73.758797 68.942046 74.319628 68.775391 74.236328 C 68.511886 74.104628 68.587224 73.655566 68.378906 73.447266 C 68.19258 73.260966 67.77617 73.633566 67.589844 73.447266 C 67.381525 73.238966 67.401678 72.86455 67.193359 72.65625 C 66.98504 72.44795 66.696951 72.261719 66.402344 72.261719 C 66.270592 72.261719 66.495504 72.74935 66.402344 72.65625 C 66.194025 72.44795 66.216131 72.073534 66.007812 71.865234 C 65.914653 71.772234 65.672203 71.983034 65.613281 71.865234 C 65.495438 71.629534 65.799607 71.260519 65.613281 71.074219 C 65.481529 70.942419 65.34855 71.602503 65.216797 71.470703 C 65.122379 71.376298 65.12421 71.24122 65.148438 71.097656 C 65.043997 71.148058 64.899356 71.151174 64.822266 71.074219 C 64.729106 70.981219 64.822266 70.811487 64.822266 70.679688 C 64.822266 70.547987 64.690514 70.285156 64.822266 70.285156 C 64.729106 70.378356 64.822266 69.756872 64.822266 69.888672 L 64.822266 70.285156 C 65.030585 70.076856 65.053379 69.739341 65.216797 69.494141 C 65.579301 68.950441 65.826344 69.087125 66.402344 68.703125 C 66.557377 68.599825 66.667076 68.440294 66.798828 68.308594 C 68.163388 66.943994 65.362851 69.827331 67.984375 66.332031 C 68.063425 66.226631 68.247153 66.332031 68.378906 66.332031 C 68.64241 66.200231 69.006504 66.1826 69.169922 65.9375 C 69.316089 65.7183 68.983597 65.332784 69.169922 65.146484 C 69.356248 64.960184 69.701019 65.189484 69.960938 65.146484 C 70.496775 65.057484 71.098973 65.0653 71.541016 64.75 C 72.33153 63.696 72.077072 64.3672 71.541016 64.75 L 84.980469 64.75 L 94.466797 64.75 L 97.628906 64.75 C 98.024163 64.75 98.424574 64.815 98.814453 64.75 C 102.28408 64.1718 98.210547 64.606137 100.79102 63.960938 C 101.04666 63.896938 101.32169 64.012938 101.58008 63.960938 C 101.98862 63.878938 102.35903 63.646153 102.76758 63.564453 C 103.02597 63.512453 103.32096 63.682253 103.55664 63.564453 C 104.13277 63.276353 104.34902 62.378906 105.13867 62.378906 C 105.325 62.378906 105.34687 62.775391 105.5332 62.775391 C 105.71952 62.775391 105.75293 62.437806 105.92969 62.378906 C 106.17968 62.295906 106.45524 62.378906 106.71875 62.378906 C 106.8505 62.378906 107.05631 62.496706 107.11523 62.378906 C 107.23308 62.143206 106.99739 61.825544 107.11523 61.589844 C 107.23308 61.354144 107.78646 61.825544 107.9043 61.589844 C 108.02214 61.354144 107.71797 60.985128 107.9043 60.798828 C 108.03605 60.667028 108.16902 61.325159 108.30078 61.193359 C 108.4871 61.007059 108.11445 60.588644 108.30078 60.402344 C 108.43253 60.270644 108.52866 60.882128 108.69531 60.798828 C 109.92078 58.347828 108.74684 60.402344 109.0918 60.402344 C 109.27812 60.402344 109.403 60.174413 109.48633 60.007812 L 109.48633 59.613281 z M 64.822266 70.285156 L 64.822266 70.679688 C 64.822266 70.811487 64.954019 70.285156 64.822266 70.285156 z M 65.148438 71.097656 C 65.170213 71.087148 65.200725 71.090263 65.216797 71.074219 C 65.309957 70.981019 65.216797 70.547987 65.216797 70.679688 C 65.216797 70.809662 65.172021 70.95791 65.148438 71.097656 z M 110.67773 71.496094 C 110.59888 71.682311 110.5505 71.865234 110.67188 71.865234 C 110.79679 71.865234 110.68969 71.633005 110.67773 71.496094 z "
       transform="translate(0,952.36216)"
       id="path4166" />
    <path
       style="fill:none;fill-rule:evenodd;stroke:#000000;stroke-width:1px;stroke-linecap:butt;stroke-linejoin:miter;stroke-opacity:1"
       d="m 82.587324,1010.0785 c -1.663332,0 -3.326665,0 -4.989997,0 -2.97649,0 -5.952979,0 -8.929468,0 -1.050526,0 -2.101052,0 -3.151578,0 -0.516231,0 -1.118143,0.043 -1.575788,-0.2626 -0.262632,-0.1751 -0.262632,-0.6128 -0.525263,-0.7879 -2.473833,-1.6492 0.404142,1.2997 -2.101051,-0.7879 -0.242485,-0.2021 -0.302069,-0.5647 -0.525263,-0.7879 -0.309514,-0.3095 -0.741012,-0.4784 -1.050526,-0.7879 -0.138419,-0.1384 -0.09975,-0.4167 -0.262631,-0.5253 -0.39226,-0.2615 -0.903835,-0.2913 -1.313157,-0.5252 -0.214987,-0.1229 -0.312938,-0.3979 -0.525263,-0.5253 -0.237387,-0.1424 -0.557551,-0.1091 -0.787894,-0.2626 -0.07284,-0.049 0.0619,-0.2008 0,-0.2627 -0.138419,-0.1384 -0.350176,-0.175 -0.525263,-0.2626 -0.175088,0 -0.401458,0.1238 -0.525263,0 -0.08754,-0.087 0.175087,-0.1751 0.262631,-0.2626"
       id="path4143"
       inkscape:connector-curvature="0" />
    <path
       style="fill:none;fill-rule:evenodd;stroke:#000000;stroke-width:1px;stroke-linecap:butt;stroke-linejoin:miter;stroke-opacity:1"
       d="m 74.062061,1011.9169 c -5.690347,0 -11.380695,0 -17.071042,0 -0.962982,0 -1.925964,0 -2.888946,0 -0.262631,0 -0.525263,0 -0.787894,0 -0.08754,0 -0.175088,0 -0.262632,0 -0.08754,0 -0.18433,-0.039 -0.262631,0 -1.244768,0.6224 -0.299632,0.5253 -1.313157,0.5253"
       id="path4145"
       inkscape:connector-curvature="0" />
    <path
       style="fill:none;fill-rule:evenodd;stroke:#000000;stroke-width:1px;stroke-linecap:butt;stroke-linejoin:miter;stroke-opacity:1"
       d="m 80.486273,1014.018 c -2.713859,0 -5.427717,0 -8.141575,0 -0.612806,0 -1.225613,0 -1.83842,0 -0.262631,0 -0.552989,-0.1175 -0.787894,0 -0.332205,0.1661 -0.469407,0.5968 -0.787894,0.7879 -0.150136,0.09 -0.353575,-0.034 -0.525263,0 -0.128205,0.026 -1.138069,0.3501 -1.313157,0.5252 -1.555136,2.3327 0.526073,-0.3156 -1.313157,0.7879 -0.270662,0.1624 -0.282779,0.5858 -0.525263,0.7879 -0.300765,0.2507 -0.749761,0.2746 -1.050526,0.5253 -0.242484,0.2021 -0.282778,0.5858 -0.525263,0.7879 -0.300764,0.2506 -0.718527,0.3177 -1.050525,0.5252 -0.371185,0.232 -0.714261,0.5077 -1.050526,0.7879 -0.19022,0.1585 -0.366746,0.3351 -0.525263,0.5253 -0.280221,0.3363 -0.451629,0.7703 -0.787894,1.0505 -0.212673,0.1772 -0.59214,0.067 -0.787894,0.2627 -0.276838,0.2768 -0.290358,0.7373 -0.525263,1.0505 -0.05253,0.07 -0.17958,-0.028 -0.262632,0 -0.185708,0.062 -0.386843,0.1242 -0.525262,0.2626 -0.309514,0.3095 -0.514454,0.7087 -0.787895,1.0505 -0.232022,0.2901 -0.525262,0.5253 -0.787894,0.7879 -0.08754,0.088 -0.193956,0.1596 -0.262631,0.2627 -1.062969,1.5944 0.756031,-0.8224 -0.525263,1.3131 -0.127395,0.2123 -0.350175,0.3502 -0.525263,0.5253"
       id="path4147"
       inkscape:connector-curvature="0" />
    <path
       style="fill:none;fill-rule:evenodd;stroke:#000000;stroke-width:1px;stroke-linecap:butt;stroke-linejoin:miter;stroke-opacity:1"
       d="m 101.59784,1006.2401 c 10.33017,0 20.66034,0 30.99051,0 1.31315,0 2.62631,0 3.93947,0 1.43961,0 2.77078,0.068 4.2021,-0.2627 0.38148,-0.088 0.67911,-0.4014 1.05053,-0.5252 0.68485,-0.2283 1.43467,-0.2476 2.10105,-0.5253 0.40404,-0.1683 0.65901,-0.5921 1.05052,-0.7879 0.66901,-0.3345 1.43204,-0.4534 2.10105,-0.7879 0.39151,-0.1957 0.67934,-0.5559 1.05053,-0.7879 0.332,-0.2075 0.71853,-0.3177 1.05053,-0.5252 0.15433,-0.096 1.36002,-0.9536 1.57578,-1.3132 0.70035,-1.1672 -0.35017,-0.5836 1.05053,-1.0505"
       id="path4149"
       inkscape:connector-curvature="0" />
    <path
       style="fill:none;fill-rule:evenodd;stroke:#000000;stroke-width:1px;stroke-linecap:butt;stroke-linejoin:miter;stroke-opacity:1"
       d="m 103.43626,1009.3917 c 5.42771,0 10.85543,0 16.28315,0 0.78789,0 1.57578,0 2.36368,0 0.17509,0 0.35357,-0.034 0.52526,0 0.27146,0.054 0.52171,0.1865 0.7879,0.2626 0.34706,0.099 0.73713,0.083 1.05052,0.2626 0.32248,0.1843 0.47886,0.5819 0.7879,0.7879 0.23034,0.1536 0.56642,0.096 0.78789,0.2626 0.1566,0.1175 0.11225,0.4 0.26263,0.5253 0.43772,0.2626 0.87544,0.5253 1.31316,0.7879 0.0875,0.1751 0.12421,0.3868 0.26263,0.5253 0.22236,0.2223 1.46561,1.0894 1.83842,1.3131 0.16786,0.1007 0.38684,0.1242 0.52526,0.2627 0.13842,0.1384 0.15405,0.3623 0.26263,0.5252 0.26194,0.3929 0.58446,0.3699 1.05053,0.5253"
       id="path4151"
       inkscape:connector-curvature="0" />
    <path
       style="fill:none;fill-rule:evenodd;stroke:#000000;stroke-width:1px;stroke-linecap:butt;stroke-linejoin:miter;stroke-opacity:1"
       d="m 106.06257,1011.4927 c 3.85193,0 7.70386,0 11.55578,0 1.13547,0 2.31426,-0.1373 3.41421,0.2626 0.55191,0.2007 1.05053,0.5253 1.57579,0.7879 0.35018,0.1751 0.71853,0.3178 1.05053,0.5253 0.37118,0.232 0.70872,0.5145 1.05052,0.7879 0.0967,0.077 0.14051,0.2423 0.26263,0.2626 0.43177,0.072 0.91083,-0.1724 1.31316,0 0.29012,0.1244 0.27879,0.5907 0.52526,0.7879 0.21618,0.173 0.52171,0.1866 0.7879,0.2626 0.34706,0.099 0.69658,0.1919 1.05052,0.2627 0.0858,0.017 0.17958,-0.028 0.26264,0 0.1857,0.062 0.35017,0.1751 0.52526,0.2626"
       id="path4153"
       inkscape:connector-curvature="0" />
  </g>
  <g
     inkscape:groupmode="layer"
     id="layer2"
     inkscape:label="Calque 2"
     style="display:inline"
     transform="translate(0,-980)" />
</svg>
